<?xml version="1.0" encoding="UTF-8"?>
<svg version="1.1" xmlns="http://www.w3.org/2000/svg" width="512" height="512">
<path d="M0 0 C17.0886657 14.0048836 28.16811425 33.53881024 30.3828125 55.71142578 C32.00992452 79.17379999 26.91311221 100.09903518 12.3828125 118.71142578 C11.69445312 119.59572266 11.00609375 120.48001953 10.296875 121.39111328 C-3.03256978 137.29725371 -23.09990868 147.45104761 -43.6171875 149.71142578 C-70.15706871 150.99678354 -92.37682859 144.88868265 -112.3671875 127.08642578 C-127.69519084 112.7527586 -137.00441919 92.3876361 -137.8984375 71.43408203 C-138.52496401 46.18593399 -131.21913268 23.71882082 -113.6171875 5.21142578 C-81.97151497 -23.93590418 -33.82465406 -26.95146801 0 0 Z M-93.6171875 31.71142578 C-103.24824353 44.9295588 -107.593066 58.4495972 -105.15625 74.80517578 C-101.85489305 89.56418333 -94.66802834 100.86252192 -82.078125 109.18017578 C-69.67064792 116.90038374 -56.46424442 119.45702737 -42.1171875 116.52392578 C-27.00384433 112.71011266 -15.68302561 104.06070048 -7.6171875 90.71142578 C-0.98811694 76.61901387 0.42786723 62.52626904 -4.6171875 47.71142578 C-7.01452557 42.05370794 -9.8842077 36.60291655 -13.6171875 31.71142578 C-14.2771875 31.71142578 -14.9371875 31.71142578 -15.6171875 31.71142578 C-15.87757813 31.11072266 -16.13796875 30.51001953 -16.40625 29.89111328 C-20.68062343 22.19724111 -32.02023899 17.72747928 -39.89453125 14.89111328 C-59.72176232 9.64815832 -80.12616796 16.72388586 -93.6171875 31.71142578 Z " fill="#7C083F" transform="translate(309.6171875,190.28857421875)"/>
<path d="M0 0 C-0.89460937 0.66644531 -1.78921875 1.33289063 -2.7109375 2.01953125 C-23.93571673 18.0831983 -37.16372495 37.68922006 -42 64 C-42.13148438 64.70253906 -42.26296875 65.40507812 -42.3984375 66.12890625 C-45.96637125 89.22404498 -39.24321891 112.50599579 -27 132 C-25.67139659 133.67043962 -24.33962147 135.33838335 -23 137 C-23 137.66 -23 138.32 -23 139 C-22.34 139 -21.68 139 -21 139 C-19.5546875 140.50390625 -19.5546875 140.50390625 -17.875 142.5625 C-12.65233278 148.69723384 -6.82683712 153.7332268 0 158 C-5.06303149 159.61782057 -9.55137974 158.14765165 -14.625 157.0625 C-16.20462524 156.72786743 -16.20462524 156.72786743 -17.81616211 156.38647461 C-35.23164141 152.54759934 -52.73678077 147.38467896 -69 140 C-69.91072266 139.58766113 -70.82144531 139.17532227 -71.75976562 138.75048828 C-85.74239824 132.35772834 -99.15833196 125.46478599 -112 117 C-112.91144775 116.40276123 -112.91144775 116.40276123 -113.84130859 115.79345703 C-125.38067706 108.17613243 -135.87490378 99.39608929 -146 90 C-146.87785156 89.21109375 -147.75570312 88.4221875 -148.66015625 87.609375 C-149.49417969 86.83078125 -150.32820313 86.0521875 -151.1875 85.25 C-152.32251953 84.20585937 -152.32251953 84.20585937 -153.48046875 83.140625 C-155 81 -155 81 -155.15625 78.6796875 C-153.39255101 74.59219591 -150.48531416 71.93974348 -147.3125 68.875 C-146.30135132 67.88367065 -146.30135132 67.88367065 -145.26977539 66.87231445 C-138.89143007 60.71748316 -132.12674463 55.25385979 -125 50 C-124.45585449 49.58975586 -123.91170898 49.17951172 -123.35107422 48.75683594 C-90.80684076 24.22483543 -52.70684886 8.80299571 -12.9375 0.5625 C-12.09791748 0.38614014 -11.25833496 0.20978027 -10.39331055 0.02807617 C-9.22215698 -0.20045044 -9.22215698 -0.20045044 -8.02734375 -0.43359375 C-7.34406006 -0.56822021 -6.66077637 -0.70284668 -5.95678711 -0.84155273 C-3.75674748 -1.01969693 -2.09928099 -0.64288831 0 0 Z " fill="#E7CDCD" transform="translate(206,177)"/>
<path d="M0 0 C53.77633711 3.55647383 105.58791489 32.7704697 145 68 C145.52916016 68.47034668 146.05832031 68.94069336 146.60351562 69.42529297 C148.06686844 70.74221753 149.50302699 72.08917551 150.9375 73.4375 C151.75089844 74.19933594 152.56429687 74.96117187 153.40234375 75.74609375 C155 78 155 78 155.171875 80.33984375 C153.38177309 84.40337509 150.47816242 87.06682704 147.3125 90.125 C146.64130127 90.78371094 145.97010254 91.44242187 145.27856445 92.12109375 C108.198131 127.92828602 51.79701426 156.15403641 0 160 C2.70872771 157.18613902 5.50926123 154.78699031 8.625 152.4375 C27.82777091 137.13176201 39.48044577 114.53480855 42.6875 90.375 C44.94226775 64.44517087 37.59426207 39.29457676 20.90625 19.26953125 C14.7649057 12.19498402 7.700607 6.3048626 0 1 C0 0.67 0 0.34 0 0 Z " fill="#E7CDCD" transform="translate(306,176)"/>
<path d="M0 0 C1.12491348 -0.00101212 1.12491348 -0.00101212 2.27255249 -0.00204468 C64.66946212 0.08667563 121.1840948 27.55437075 164.8125 71.25 C165.89889038 72.31466931 166.98618544 73.37841598 168.07421875 74.44140625 C169.21620861 75.56504036 170.35813484 76.68873916 171.5 77.8125 C172.08072266 78.37646484 172.66144531 78.94042969 173.25976562 79.52148438 C173.81728516 80.07255859 174.37480469 80.62363281 174.94921875 81.19140625 C175.70271606 81.92919312 175.70271606 81.92919312 176.47143555 82.68188477 C177.95948804 84.42187405 178.86914478 86.17170121 179.8125 88.25 C175.39577685 86.72785247 171.80433682 84.33101352 168 81.6875 C102.17148142 37.08383833 17.27654988 24.13957853 -60.13476562 38.64501953 C-100.99449851 46.7424618 -143.22662375 62.11346087 -176.1875 88.25 C-176.8475 87.92 -177.5075 87.59 -178.1875 87.25 C-176.7364926 85.41086305 -175.27648341 83.5788247 -173.8125 81.75 C-173.00039062 80.7290625 -172.18828125 79.708125 -171.3515625 78.65625 C-170.63742188 77.8621875 -169.92328125 77.068125 -169.1875 76.25 C-168.5275 76.25 -167.8675 76.25 -167.1875 76.25 C-166.92195313 75.65832031 -166.65640625 75.06664062 -166.3828125 74.45703125 C-162.85021145 67.93441819 -155.76429171 62.99988812 -150.1875 58.25 C-149.33671875 57.51007813 -148.4859375 56.77015625 -147.609375 56.0078125 C-113.17681699 26.56138994 -71.21268624 7.01364686 -26.1875 1.25 C-25.47376221 1.1557373 -24.76002441 1.06147461 -24.0246582 0.96435547 C-16.03989939 0.03184107 -8.02867531 0.0065201 0 0 Z " fill="#79083D" transform="translate(255.1875,129.75)"/>
<path d="M0 0 C4.41672315 1.52214753 8.00816318 3.91898648 11.8125 6.5625 C53.8286147 35.03150713 101.97609923 48.7922332 152 54 C153.2478125 54.1340625 154.495625 54.268125 155.78125 54.40625 C185.8949246 57.08964675 217.50539234 54.52065876 247 48 C247.8161377 47.82243164 248.63227539 47.64486328 249.47314453 47.46191406 C283.98957837 39.80069967 318.27963417 26.14447161 347.33081055 5.83276367 C350.79577359 3.41079367 353.94281456 1.34187067 358 0 C355.05460948 4.99435783 351.37516716 8.7330142 347.23046875 12.76953125 C345.34363682 14.65636318 343.62742158 16.56468464 341.9375 18.625 C338.65369143 22.53344607 334.89420282 25.71526879 331 29 C329.59427734 30.2375 329.59427734 30.2375 328.16015625 31.5 C311.01410986 46.50448273 291.5420459 58.26450505 271 68 C270.37577148 68.30147949 269.75154297 68.60295898 269.10839844 68.91357422 C218.39606484 93.23479543 158.36476422 93.98945621 105.609375 76.0703125 C75.06452068 65.13064167 48.10402703 47.90653986 24.2890625 26.04296875 C21.96904299 23.92106808 21.96904299 23.92106808 19.2109375 21.86328125 C18.11652344 20.94095703 18.11652344 20.94095703 17 20 C17 19.34 17 18.68 17 18 C16.4328125 17.76925781 15.865625 17.53851563 15.28125 17.30078125 C12.41536876 15.66664006 10.67086998 13.66690116 8.5 11.1875 C7.7471875 10.33542969 6.994375 9.48335938 6.21875 8.60546875 C0 1.3028169 0 1.3028169 0 0 Z " fill="#78083D" transform="translate(77,294)"/>
<path d="M0 0 C1.36125 1.051875 1.36125 1.051875 2.75 2.125 C3.30042969 2.50914062 3.85085938 2.89328125 4.41796875 3.2890625 C12.30485521 9.24340062 17.08791889 18.49327948 18.75 28.125 C20.23484644 42.16840706 17.75568465 53.28329956 9.01171875 64.61328125 C1.79914688 72.62309768 -7.77599354 77.75588548 -18.5625 78.50390625 C-32.7703635 79.0675561 -43.48121584 75.82193006 -54.25 66.125 C-63.41617991 55.87044252 -66.16011575 44.86466789 -65.62890625 31.4375 C-64.88971967 20.77838319 -59.80842128 11.42938009 -52.11328125 4.0859375 C-37.03560278 -8.28144274 -16.8245053 -9.70644537 0 0 Z M-43.25 19.125 C-47.84678681 25.30817791 -49.61752017 31.42935033 -49.25 39.125 C-47.98829144 46.56307238 -44.18338178 53.03503342 -38.24609375 57.69921875 C-31.71336469 61.77779199 -24.86888637 63.17670382 -17.31640625 61.45703125 C-8.81464574 58.6308015 -3.37983666 54.73231933 0.76953125 46.6484375 C3.408415 39.85672873 3.51624467 33.02166264 0.81640625 26.25390625 C-2.92239206 18.79000486 -7.53401508 14.3937718 -15.25 11.125 C-25.56690383 8.05355535 -35.88098634 11.41324152 -43.25 19.125 Z " fill="#D7BFBF" transform="translate(279.25,219.875)"/>
<path d="M0 0 C3.96 0 7.92 0 12 0 C12 47.19 12 94.38 12 143 C-35.19 143 -82.38 143 -131 143 C-131 139.04 -131 135.08 -131 131 C-128.57914818 130.9845388 -128.57914818 130.9845388 -126.10939026 130.96876526 C-110.93731482 130.87122284 -95.76528312 130.76856699 -80.59327793 130.66066074 C-72.79226259 130.60531073 -64.99124268 130.55182587 -57.19018555 130.50268555 C-50.39320818 130.45986543 -43.59626473 130.41359302 -36.79933971 130.36312145 C-33.19823862 130.33650293 -29.59714434 130.31164951 -25.9960041 130.29092598 C-21.98239248 130.26776426 -17.96887652 130.23689723 -13.95532227 130.20532227 C-12.15134727 130.19668907 -12.15134727 130.19668907 -10.31092834 130.18788147 C-8.68072754 130.17319824 -8.68072754 130.17319824 -7.01759338 130.15821838 C-6.06722482 130.15176583 -5.11685625 130.14531328 -4.13768864 130.1386652 C-2.01725055 130.23720128 -2.01725055 130.23720128 -1 129 C-0.89168184 127.33014701 -0.85314269 125.65573048 -0.84178162 123.98240662 C-0.8319928 122.89560608 -0.82220398 121.80880554 -0.81211853 120.68907166 C-0.80636307 119.48642166 -0.8006076 118.28377167 -0.79467773 117.04467773 C-0.78477814 115.78632111 -0.77487854 114.52796448 -0.76467896 113.23147583 C-0.73756724 109.77092214 -0.71659174 106.31035473 -0.69667697 102.84975314 C-0.67485593 99.23689169 -0.64744831 95.62407285 -0.62062073 92.01124573 C-0.57064118 85.16539583 -0.52572195 78.31952234 -0.48259836 71.4736262 C-0.43327086 63.68170385 -0.37833614 55.88982423 -0.32291877 48.09794319 C-0.20901798 32.06533456 -0.10239558 16.03268628 0 0 Z " fill="#6E0738" transform="translate(470,339)"/>
<path d="M0 0 C3.96 0 7.92 0 12 0 C12.01030746 1.61390121 12.02061493 3.22780243 12.03123474 4.89060974 C12.12877716 20.06268518 12.23143301 35.23471688 12.33933926 50.40672207 C12.39468927 58.20773741 12.44817413 66.00875732 12.49731445 73.80981445 C12.54013457 80.60679182 12.58640698 87.40373527 12.63687855 94.20066029 C12.66349707 97.80176138 12.68835049 101.40285566 12.70907402 105.0039959 C12.73223574 109.01760752 12.76310277 113.03112348 12.79467773 117.04467773 C12.8004332 118.24732773 12.80618866 119.44997772 12.81211853 120.68907166 C12.82190735 121.77587219 12.83169617 122.86267273 12.84178162 123.98240662 C12.84823417 124.93277518 12.85468672 125.88314375 12.8613348 126.86231136 C12.76279872 128.98274945 12.76279872 128.98274945 14 130 C15.66985299 130.10831816 17.34426952 130.14685731 19.01759338 130.15821838 C20.10439392 130.1680072 21.19119446 130.17779602 22.31092834 130.18788147 C23.51357834 130.19363693 24.71622833 130.1993924 25.95532227 130.20532227 C27.21367889 130.21522186 28.47203552 130.22512146 29.76852417 130.23532104 C33.22907786 130.26243276 36.68964527 130.28340826 40.15024686 130.30332303 C43.76310831 130.32514407 47.37592715 130.35255169 50.98875427 130.37937927 C57.83460417 130.42935882 64.68047766 130.47427805 71.5263738 130.51740164 C79.31829615 130.56672914 87.11017577 130.62166386 94.90205681 130.67708123 C110.93466544 130.79098202 126.96731372 130.89760442 143 131 C143 134.96 143 138.92 143 143 C95.81 143 48.62 143 0 143 C0 95.81 0 48.62 0 0 Z " fill="#6E0738" transform="translate(30,339)"/>
<path d="M0 0 C47.19 0 94.38 0 143 0 C143 47.19 143 94.38 143 143 C139.04 143 135.08 143 131 143 C130.9845388 140.57914818 130.9845388 140.57914818 130.96876526 138.10939026 C130.87122284 122.93731482 130.76856699 107.76528312 130.66066074 92.59327793 C130.60531073 84.79226259 130.55182587 76.99124268 130.50268555 69.19018555 C130.45986543 62.39320818 130.41359302 55.59626473 130.36312145 48.79933971 C130.33650293 45.19823862 130.31164951 41.59714434 130.29092598 37.9960041 C130.26776426 33.98239248 130.23689723 29.96887652 130.20532227 25.95532227 C130.1995668 24.75267227 130.19381134 23.55002228 130.18788147 22.31092834 C130.17319824 20.68072754 130.17319824 20.68072754 130.15821838 19.01759338 C130.15176583 18.06722482 130.14531328 17.11685625 130.1386652 16.13768864 C130.23720128 14.01725055 130.23720128 14.01725055 129 13 C127.33014701 12.89168184 125.65573048 12.85314269 123.98240662 12.84178162 C122.89560608 12.8319928 121.80880554 12.82220398 120.68907166 12.81211853 C119.48642166 12.80636307 118.28377167 12.8006076 117.04467773 12.79467773 C115.78632111 12.78477814 114.52796448 12.77487854 113.23147583 12.76467896 C109.77092214 12.73756724 106.31035473 12.71659174 102.84975314 12.69667697 C99.23689169 12.67485593 95.62407285 12.64744831 92.01124573 12.62062073 C85.16539583 12.57064118 78.31952234 12.52572195 71.4736262 12.48259836 C63.68170385 12.43327086 55.88982423 12.37833614 48.09794319 12.32291877 C32.06533456 12.20901798 16.03268628 12.10239558 0 12 C0 8.04 0 4.08 0 0 Z " fill="#6E0738" transform="translate(339,30)"/>
<path d="M0 0 C47.19 0 94.38 0 143 0 C143 3.96 143 7.92 143 12 C141.38609879 12.01030746 139.77219757 12.02061493 138.10939026 12.03123474 C122.93731482 12.12877716 107.76528312 12.23143301 92.59327793 12.33933926 C84.79226259 12.39468927 76.99124268 12.44817413 69.19018555 12.49731445 C62.39320818 12.54013457 55.59626473 12.58640698 48.79933971 12.63687855 C45.19823862 12.66349707 41.59714434 12.68835049 37.9960041 12.70907402 C33.98239248 12.73223574 29.96887652 12.76310277 25.95532227 12.79467773 C24.15134727 12.80331093 24.15134727 12.80331093 22.31092834 12.81211853 C21.22412781 12.82190735 20.13732727 12.83169617 19.01759338 12.84178162 C18.06722482 12.84823417 17.11685625 12.85468672 16.13768864 12.8613348 C14.01725055 12.76279872 14.01725055 12.76279872 13 14 C12.89168184 15.66985299 12.85314269 17.34426952 12.84178162 19.01759338 C12.82709839 20.64779419 12.82709839 20.64779419 12.81211853 22.31092834 C12.80636307 23.51357834 12.8006076 24.71622833 12.79467773 25.95532227 C12.77982834 27.84285721 12.77982834 27.84285721 12.76467896 29.76852417 C12.73756724 33.22907786 12.71659174 36.68964527 12.69667697 40.15024686 C12.67485593 43.76310831 12.64744831 47.37592715 12.62062073 50.98875427 C12.57064118 57.83460417 12.52572195 64.68047766 12.48259836 71.5263738 C12.43327086 79.31829615 12.37833614 87.11017577 12.32291877 94.90205681 C12.20901798 110.93466544 12.10239558 126.96731372 12 143 C8.04 143 4.08 143 0 143 C0 95.81 0 48.62 0 0 Z " fill="#6E0738" transform="translate(30,30)"/>
<path d="M0 0 C3.63 0 7.26 0 11 0 C11 19.14 11 38.28 11 58 C-8.14 58 -27.28 58 -47 58 C-47 54.37 -47 50.74 -47 47 C-45.67758301 46.98018066 -44.35516602 46.96036133 -42.99267578 46.93994141 C-38.0985978 46.8640201 -33.20482241 46.77528241 -28.31103516 46.68261719 C-26.1906531 46.64427158 -24.07020474 46.60942867 -21.94970703 46.578125 C-18.90633402 46.53259534 -15.86341968 46.47458161 -12.8203125 46.4140625 C-11.39212692 46.39673569 -11.39212692 46.39673569 -9.93508911 46.37905884 C-9.05432709 46.35918915 -8.17356506 46.33931946 -7.26611328 46.31884766 C-6.48889923 46.30552399 -5.71168518 46.29220032 -4.91091919 46.2784729 C-2.7611053 46.15960424 -2.7611053 46.15960424 -1 44 C-0.67043065 42.02239739 -0.67043065 42.02239739 -0.68115234 39.73388672 C-0.66128265 38.85312469 -0.64141296 37.97236267 -0.62094116 37.06491089 C-0.60938995 36.11278717 -0.59783875 35.16066345 -0.5859375 34.1796875 C-0.56657135 33.20589142 -0.5472052 32.23209534 -0.5272522 31.22879028 C-0.46735442 28.11094997 -0.42103029 24.99307294 -0.375 21.875 C-0.33682961 19.76430659 -0.29777844 17.65362892 -0.2578125 15.54296875 C-0.16164451 10.36210657 -0.07765128 5.18117147 0 0 Z " fill="#D1B9B9" transform="translate(418,371)"/>
<path d="M0 0 C3.63 0 7.26 0 11 0 C11.33 15.18 11.66 30.36 12 46 C27.18 46.33 42.36 46.66 58 47 C58 50.63 58 54.26 58 58 C38.86 58 19.72 58 0 58 C0 38.86 0 19.72 0 0 Z " fill="#D1B9B9" transform="translate(83,371)"/>
<path d="M0 0 C19.14 0 38.28 0 58 0 C58 3.63 58 7.26 58 11 C42.82 11.33 27.64 11.66 12 12 C11.67 27.18 11.34 42.36 11 58 C7.37 58 3.74 58 0 58 C0 38.86 0 19.72 0 0 Z " fill="#C5AEAE" transform="translate(83,83)"/>
<path d="M0 0 C19.14 0 38.28 0 58 0 C58 19.14 58 38.28 58 58 C54.37 58 50.74 58 47 58 C46.67 42.82 46.34 27.64 46 12 C30.82 11.67 15.64 11.34 0 11 C0 7.37 0 3.74 0 0 Z " fill="#D1B9B9" transform="translate(371,83)"/>
<path d="M0 0 C4.38199993 3.41795995 6.66767787 6.46254881 7.50390625 11.90234375 C7.76875104 17.58369158 6.99354712 21.04617624 3.125 25.4375 C-1.3976559 29.51892118 -4.66646353 30.76114536 -10.8203125 30.6484375 C-15.58835617 30.15894252 -18.66612677 27.90569043 -21.6875 24.375 C-25.39383453 19.3979222 -25.51541301 15.53972112 -24.875 9.4375 C-23.55100684 5.20231705 -21.25356886 2.73278371 -17.75 0 C-12.14356574 -2.77915518 -5.60643426 -2.77915518 0 0 Z " fill="#75073B" transform="translate(264.875,241.5625)"/>
<path d="M0 0 C0.66 0.33 1.32 0.66 2 1 C-4.93 7.93 -11.86 14.86 -19 22 C-18.01 22.33 -17.02 22.66 -16 23 C-21.445 26.96 -21.445 26.96 -27 31 C-27.66 30.67 -28.32 30.34 -29 30 C-27.5489926 28.16086305 -26.08898341 26.3288247 -24.625 24.5 C-23.81289062 23.4790625 -23.00078125 22.458125 -22.1640625 21.40625 C-21.44992188 20.6121875 -20.73578125 19.818125 -20 19 C-19.34 19 -18.68 19 -18 19 C-17.73445313 18.40832031 -17.46890625 17.81664062 -17.1953125 17.20703125 C-13.95607293 11.22608237 -7.68830141 6.76251434 -2.6015625 2.3828125 C-1.71147181 1.61429517 -0.83152881 0.83152881 0 0 Z " fill="#270213" transform="translate(106,187)"/>
<path d="M0 0 C-0.67804688 0.31710938 -1.35609375 0.63421875 -2.0546875 0.9609375 C-9.7496917 4.8190975 -15.22343262 9.65955945 -21 16 C-21 12.46506602 -19.96940163 11.22655015 -17.6953125 8.62109375 C-13.40924546 4.52266559 -5.9974278 -1.9991426 0 0 Z " fill="#2D2828" transform="translate(243,217)"/>
<path d="M0 0 C0.66 0.33 1.32 0.66 2 1 C4.09821215 0.60061233 4.09821215 0.60061233 6 0 C2.67149253 3.59478807 -0.98971331 6.22364768 -5 9 C-5.66 8.67 -6.32 8.34 -7 8 C-4.69 5.36 -2.38 2.72 0 0 Z " fill="#000000" transform="translate(84,209)"/>
<path d="M0 0 C4.56048012 3.61251516 8.01665146 6.98797445 11 12 C7.08158173 10.69386058 4.67359191 9.16870152 2 6 C2 5.34 2 4.68 2 4 C1.36525925 2.65117592 0.70151152 1.3153341 0 0 Z " fill="#000000" transform="translate(424,206)"/>
<path d="M0 0 C0.66 0.33 1.32 0.66 2 1 C-0.64 3.97 -3.28 6.94 -6 10 C-6.33 8.68 -6.66 7.36 -7 6 C-4.8386373 3.48814606 -2.98037561 1.49018781 0 0 Z " fill="#000000" transform="translate(433,294)"/>
<path d="M0 0 C3.89081843 1.29693948 6.48181674 2.70699112 9 6 C8.6015625 8.1328125 8.6015625 8.1328125 8 10 C6.84806377 8.90220176 5.70365063 7.79650554 4.5625 6.6875 C3.92441406 6.07261719 3.28632812 5.45773437 2.62890625 4.82421875 C1 3 1 3 0 0 Z " fill="#000000" transform="translate(77,294)"/>
<path d="M0 0 C1.98 0.66 3.96 1.32 6 2 C6 2.33 6 2.66 6 3 C2.7 3.33 -0.6 3.66 -4 4 C-2.68 2.68 -1.36 1.36 0 0 Z " fill="#000000" transform="translate(310,332)"/>
<path d="M0 0 C2.6875 0.6875 2.6875 0.6875 5 2 C5.33 2.66 5.66 3.32 6 4 C2.7 3.67 -0.6 3.34 -4 3 C-2.68 2.01 -1.36 1.02 0 0 Z " fill="#000000" transform="translate(200,332)"/>
</svg>
